<svg width="25" height="25" viewBox="0 0 25 25" fill="none" xmlns="http://www.w3.org/2000/svg">
<path d="M10.4166 17.1875L16.6666 12.5L10.4166 7.8125V17.1875ZM12.4999 2.08333C6.74992 2.08333 2.08325 6.75 2.08325 12.5C2.08325 18.25 6.74992 22.9167 12.4999 22.9167C18.2499 22.9167 22.9166 18.25 22.9166 12.5C22.9166 6.75 18.2499 2.08333 12.4999 2.08333ZM12.4999 20.8333C7.90617 20.8333 4.16659 17.0937 4.16659 12.5C4.16659 7.90625 7.90617 4.16666 12.4999 4.16666C17.0937 4.16666 20.8333 7.90625 20.8333 12.5C20.8333 17.0937 17.0937 20.8333 12.4999 20.8333Z" fill="#F68000"/>
</svg>
