<svg width="41" height="40" viewBox="0 0 41 40" fill="none" xmlns="http://www.w3.org/2000/svg">
<g opacity="0.5">
<path opacity="0.5" d="M20.0212 39.8332C31.0786 39.8332 40.0424 30.9162 40.0424 19.9166C40.0424 8.91696 31.0786 0 20.0212 0C8.96379 0 0 8.91696 0 19.9166C0 30.9162 8.96379 39.8332 20.0212 39.8332Z" fill="url(#paint0_linear)"/>
</g>
<path d="M20.0591 39.2849C30.8827 39.2849 39.657 30.5565 39.657 19.7894C39.657 9.02233 30.8827 0.293884 20.0591 0.293884C9.23546 0.293884 0.461182 9.02233 0.461182 19.7894C0.461182 30.5565 9.23546 39.2849 20.0591 39.2849Z" fill="#F5F5F5"/>
<path d="M20.0764 39.3623C23.9056 39.3682 27.6517 38.2529 30.848 36.1554C30.1259 32.2302 27.3773 32.005 27.3773 32.005H12.2176C12.2176 32.005 9.62618 32.2164 8.81421 35.8289C12.1112 38.1359 16.0456 39.3702 20.0764 39.3623Z" fill="#6C63FF"/>
<path d="M19.869 28.7896C25.0938 28.7896 29.3294 24.5762 29.3294 19.3787C29.3294 14.1812 25.0938 9.96774 19.869 9.96774C14.6442 9.96774 10.4087 14.1812 10.4087 19.3787C10.4087 24.5762 14.6442 28.7896 19.869 28.7896Z" fill="#333333"/>
<path opacity="0.1" d="M16.8164 27.2171H22.8786V32.0412C22.8786 32.8406 22.5593 33.6073 21.991 34.1726C21.4228 34.7379 20.652 35.0555 19.8483 35.0555C19.0447 35.0555 18.2739 34.7379 17.7057 34.1726C17.1374 33.6073 16.8181 32.8406 16.8181 32.0412V27.2171H16.8164Z" fill="black"/>
<path d="M17.3952 26.9937H22.2998C22.4533 26.9937 22.6005 27.0544 22.7091 27.1623C22.8176 27.2703 22.8786 27.4167 22.8786 27.5694V31.8212C22.8786 32.6206 22.5593 33.3874 21.991 33.9527C21.4228 34.518 20.652 34.8356 19.8483 34.8356C19.4503 34.8358 19.056 34.758 18.6882 34.6066C18.3204 34.4552 17.9861 34.2332 17.7045 33.9533C17.423 33.6733 17.1996 33.341 17.0472 32.9751C16.8948 32.6093 16.8164 32.2172 16.8164 31.8212V27.5677C16.8164 27.415 16.8774 27.2686 16.9859 27.1606C17.0945 27.0526 17.2417 26.992 17.3952 26.992V26.9937Z" fill="#FDB797"/>
<path opacity="0.1" d="M16.8286 29.4942C18.7823 30.2206 20.9329 30.2267 22.8908 29.5114V28.7655H16.8286V29.4942Z" fill="black"/>
<path d="M19.8693 29.8981C24.6676 29.8981 28.5574 26.0286 28.5574 21.2554C28.5574 16.4821 24.6676 12.6126 19.8693 12.6126C15.071 12.6126 11.1812 16.4821 11.1812 21.2554C11.1812 26.0286 15.071 29.8981 19.8693 29.8981Z" fill="#FDB797"/>
<path opacity="0.1" d="M13.6826 13.3929C13.6826 13.3929 17.3434 20.7828 27.6762 16.4863L25.2714 12.7347L21.0094 11.212L13.6826 13.3929Z" fill="black"/>
<path d="M13.6826 13.2846C13.6826 13.2846 17.3434 20.6745 27.6762 16.378L25.2714 12.6264L21.0094 11.1037L13.6826 13.2846Z" fill="#333333"/>
<path d="M13.6498 12.7828C13.8966 12.0226 14.3232 11.3325 14.8937 10.7703C16.6023 9.08955 19.4044 8.73553 20.8418 6.8176C20.9199 6.95333 20.9685 7.10385 20.9845 7.25943C21.0005 7.41502 20.9836 7.57222 20.9347 7.72088C20.8859 7.86954 20.8063 8.00636 20.701 8.12252C20.5957 8.23868 20.4671 8.33158 20.3235 8.39525C21.7056 8.38665 23.2967 8.26635 24.0741 7.13897C24.2665 7.58447 24.3279 8.07514 24.2512 8.55397C24.1744 9.03279 23.9627 9.48013 23.6405 9.844C24.8602 9.899 26.1628 10.7222 26.2423 11.9355C26.2941 12.7432 25.7862 13.508 25.1176 13.972C24.449 14.436 23.6422 14.6474 22.8475 14.8227C20.5291 15.3349 12.1364 17.4676 13.6498 12.7828Z" fill="#333333"/>
<path d="M11.1777 22.7539C11.6242 22.7539 11.9862 22.0792 11.9862 21.2468C11.9862 20.4144 11.6242 19.7396 11.1777 19.7396C10.7311 19.7396 10.3691 20.4144 10.3691 21.2468C10.3691 22.0792 10.7311 22.7539 11.1777 22.7539Z" fill="#FDB797"/>
<path d="M28.5556 22.7539C29.0021 22.7539 29.3641 22.0792 29.3641 21.2468C29.3641 20.4144 29.0021 19.7396 28.5556 19.7396C28.1091 19.7396 27.7471 20.4144 27.7471 21.2468C27.7471 22.0792 28.1091 22.7539 28.5556 22.7539Z" fill="#FDB797"/>
<defs>
<linearGradient id="paint0_linear" x1="4640.51" y1="19224.3" x2="4640.51" y2="9992.15" gradientUnits="userSpaceOnUse">
<stop stop-color="#808080" stop-opacity="0.25"/>
<stop offset="0.54" stop-color="#808080" stop-opacity="0.12"/>
<stop offset="1" stop-color="#808080" stop-opacity="0.1"/>
</linearGradient>
</defs>
</svg>
