<svg width="40" height="40" viewBox="0 0 40 40" fill="none" xmlns="http://www.w3.org/2000/svg">
<path d="M37.5 36.25H36.25V37.5H33.75V36.25H32.5V37.5H30V36.25H28.75V37.5H26.25V36.25H25V37.5H22.5V36.25H21.25V37.5H18.75V36.25H17.5V37.5H15V36.25H13.75V37.5H11.25V36.25H10V37.5H7.5V36.25H6.25V37.5H2.5V33.75H3.75V32.5H2.5V30H3.75V28.75H2.5V26.25H3.75V25H2.5V22.5H3.75V21.25H2.5V18.75H3.75V17.5H2.5V15H3.75V13.75H2.5V11.25H3.75V10H2.5V7.5H3.75V6.25H2.5V3.75H3.75V2.5H2.5V1.25H1.25V38.125C1.25 38.4706 1.53 38.75 1.875 38.75H38.75V37.5H37.5V36.25Z" fill="#3F48F4"/>
<path d="M6.25 27.5C6.25 28.5338 7.09125 29.375 8.125 29.375C9.15875 29.375 10 28.5338 10 27.5C10 26.4662 9.15875 25.625 8.125 25.625C7.09125 25.625 6.25 26.4662 6.25 27.5ZM8.75 27.5C8.75 27.845 8.46937 28.125 8.125 28.125C7.78063 28.125 7.5 27.845 7.5 27.5C7.5 27.155 7.78063 26.875 8.125 26.875C8.46937 26.875 8.75 27.155 8.75 27.5Z" fill="#3F48F4"/>
<path d="M11.875 20.625C11.875 19.5912 11.0338 18.75 10 18.75C8.96625 18.75 8.125 19.5912 8.125 20.625C8.125 21.6588 8.96625 22.5 10 22.5C11.0338 22.5 11.875 21.6588 11.875 20.625ZM9.375 20.625C9.375 20.28 9.65563 20 10 20C10.3444 20 10.625 20.28 10.625 20.625C10.625 20.97 10.3444 21.25 10 21.25C9.65563 21.25 9.375 20.97 9.375 20.625Z" fill="#3F48F4"/>
<path d="M36.25 9.375C36.25 8.34125 35.4088 7.5 34.375 7.5C33.3412 7.5 32.5 8.34125 32.5 9.375C32.5 10.4088 33.3412 11.25 34.375 11.25C35.4088 11.25 36.25 10.4088 36.25 9.375ZM33.75 9.375C33.75 9.03 34.0306 8.75 34.375 8.75C34.7194 8.75 35 9.03 35 9.375C35 9.72 34.7194 10 34.375 10C34.0306 10 33.75 9.72 33.75 9.375Z" fill="#3F48F4"/>
<path d="M13.75 15.625C13.75 16.6588 14.5912 17.5 15.625 17.5C16.6588 17.5 17.5 16.6588 17.5 15.625C17.5 14.5912 16.6588 13.75 15.625 13.75C14.5912 13.75 13.75 14.5912 13.75 15.625ZM16.25 15.625C16.25 15.97 15.9694 16.25 15.625 16.25C15.2806 16.25 15 15.97 15 15.625C15 15.28 15.2806 15 15.625 15C15.9694 15 16.25 15.28 16.25 15.625Z" fill="#3F48F4"/>
<path d="M21.875 26.25C21.875 27.2838 22.7162 28.125 23.75 28.125C24.7838 28.125 25.625 27.2838 25.625 26.25C25.625 25.2162 24.7838 24.375 23.75 24.375C22.7162 24.375 21.875 25.2162 21.875 26.25ZM24.375 26.25C24.375 26.595 24.0944 26.875 23.75 26.875C23.4056 26.875 23.125 26.595 23.125 26.25C23.125 25.905 23.4056 25.625 23.75 25.625C24.0944 25.625 24.375 25.905 24.375 26.25Z" fill="#3F48F4"/>
<path d="M26.875 20C27.9088 20 28.75 19.1588 28.75 18.125C28.75 17.0912 27.9088 16.25 26.875 16.25C25.8412 16.25 25 17.0912 25 18.125C25 19.1588 25.8412 20 26.875 20ZM26.875 17.5C27.2194 17.5 27.5 17.78 27.5 18.125C27.5 18.47 27.2194 18.75 26.875 18.75C26.5306 18.75 26.25 18.47 26.25 18.125C26.25 17.78 26.5306 17.5 26.875 17.5Z" fill="#3F48F4"/>
<path d="M23.75 7.5C23.75 8.53375 24.5912 9.375 25.625 9.375C26.6588 9.375 27.5 8.53375 27.5 7.5C27.5 6.46625 26.6588 5.625 25.625 5.625C24.5912 5.625 23.75 6.46625 23.75 7.5ZM26.25 7.5C26.25 7.845 25.9694 8.125 25.625 8.125C25.2806 8.125 25 7.845 25 7.5C25 7.155 25.2806 6.875 25.625 6.875C25.9694 6.875 26.25 7.155 26.25 7.5Z" fill="#3F48F4"/>
<path d="M38.3081 0.808121L37.6781 1.43812C37.4338 1.32062 37.1638 1.25 36.875 1.25C35.8413 1.25 35 2.09125 35 3.125C35 3.41375 35.0706 3.68375 35.1881 3.92812L33.7 5.41625C33.7306 5.28187 33.75 5.14375 33.75 5C33.75 3.96625 32.9088 3.125 31.875 3.125C30.8413 3.125 30 3.96625 30 5C30 6.03375 30.8413 6.875 31.875 6.875C32.0188 6.875 32.1569 6.85562 32.2913 6.82437L29.5531 9.5625C29.3088 9.44562 29.0388 9.375 28.75 9.375C27.7163 9.375 26.875 10.2162 26.875 11.25C26.875 11.5387 26.9456 11.8087 27.0631 12.0531L24.9763 14.14C24.8594 13.2181 24.0788 12.5 23.125 12.5C22.0913 12.5 21.25 13.3412 21.25 14.375C21.25 15.3287 21.9681 16.1094 22.89 16.2262L20.8031 18.3131C20.5588 18.1956 20.2888 18.125 20 18.125C18.9663 18.125 18.125 18.9662 18.125 20C18.125 20.2887 18.1963 20.5587 18.3131 20.8031L15.9575 23.1581C15.8494 23.1394 15.7388 23.125 15.625 23.125C14.5913 23.125 13.75 23.9662 13.75 25C13.75 25.1137 13.7644 25.2244 13.7838 25.3331L8.30376 30.8131C8.05876 30.6956 7.78876 30.625 7.50001 30.625C6.46626 30.625 5.62501 31.4662 5.62501 32.5C5.62501 32.7887 5.69564 33.0587 5.81314 33.3031L4.55814 34.5581L5.44189 35.4419L6.69689 34.1869C6.94126 34.3044 7.21126 34.375 7.50001 34.375C8.53376 34.375 9.37501 33.5337 9.37501 32.5C9.37501 32.2112 9.30439 31.9412 9.18689 31.6969L14.4413 26.4425C14.7656 26.7087 15.1744 26.875 15.625 26.875C16.6588 26.875 17.5 26.0337 17.5 25C17.5 24.5487 17.3338 24.14 17.0669 23.8162L19.1963 21.6869C19.4413 21.8037 19.7113 21.875 20 21.875C21.0338 21.875 21.875 21.0337 21.875 20C21.875 19.7112 21.8044 19.4412 21.6869 19.1969L27.9463 12.9375C28.1913 13.0544 28.4613 13.125 28.75 13.125C29.7838 13.125 30.625 12.2837 30.625 11.25C30.625 10.9612 30.5544 10.6912 30.4369 10.4469L36.0713 4.8125C36.3163 4.92937 36.5863 5 36.875 5C37.9088 5 38.75 4.15875 38.75 3.125C38.75 2.83625 38.6794 2.56625 38.5619 2.32187L39.1919 1.69187L38.3081 0.808121ZM31.25 5C31.25 4.655 31.5306 4.375 31.875 4.375C32.2194 4.375 32.5 4.655 32.5 5C32.5 5.345 32.2194 5.625 31.875 5.625C31.5306 5.625 31.25 5.345 31.25 5ZM22.5 14.375C22.5 14.03 22.7806 13.75 23.125 13.75C23.4694 13.75 23.75 14.03 23.75 14.375C23.75 14.72 23.4694 15 23.125 15C22.7806 15 22.5 14.72 22.5 14.375ZM7.50001 33.125C7.15564 33.125 6.87501 32.845 6.87501 32.5C6.87501 32.155 7.15564 31.875 7.50001 31.875C7.84439 31.875 8.12501 32.155 8.12501 32.5C8.12501 32.845 7.84439 33.125 7.50001 33.125ZM15.625 25.625C15.2806 25.625 15 25.345 15 25C15 24.655 15.2806 24.375 15.625 24.375C15.9694 24.375 16.25 24.655 16.25 25C16.25 25.345 15.9694 25.625 15.625 25.625ZM20 20.625C19.6556 20.625 19.375 20.345 19.375 20C19.375 19.655 19.6556 19.375 20 19.375C20.3444 19.375 20.625 19.655 20.625 20C20.625 20.345 20.3444 20.625 20 20.625ZM28.75 11.875C28.4056 11.875 28.125 11.595 28.125 11.25C28.125 10.905 28.4056 10.625 28.75 10.625C29.0944 10.625 29.375 10.905 29.375 11.25C29.375 11.595 29.0944 11.875 28.75 11.875ZM36.875 3.75C36.5306 3.75 36.25 3.47 36.25 3.125C36.25 2.78 36.5306 2.5 36.875 2.5C37.2194 2.5 37.5 2.78 37.5 3.125C37.5 3.47 37.2194 3.75 36.875 3.75Z" fill="#3F48F4"/>
</svg>
